<svg xmlns="http://www.w3.org/2000/svg" viewBox="0 0 512 512">
<defs>
<radialGradient id="wg" cx="40%" cy="30%" r="75%">
  <stop offset="0%" stop-color="#fdfaf0"/>
  <stop offset="60%" stop-color="#f0ead6"/>
  <stop offset="100%" stop-color="#ccc4ac"/>
</radialGradient>
<radialGradient id="cg" cx="50%" cy="50%" r="50%">
  <stop offset="0%" stop-color="#fdfaf2"/>
  <stop offset="100%" stop-color="#ede6d2"/>
</radialGradient>
</defs>
<rect width="512" height="512" fill="#f5f0e4"/>
<circle cx="256" cy="256" r="248" fill="#141010"/>
<circle cx="256" cy="256" r="242" fill="#f0ead6"/>
<path d="M257.16,108.00L257.90,14.01A242,242 0 0,1 316.80,21.76L293.18,112.75A148,148 0 0,0 257.16,108.00Z" fill="url(#wg)" stroke="#1a1410" stroke-width="0.8"/>
<path d="M331.00,128.41L378.64,47.38A242,242 0 0,1 425.77,83.54L359.83,150.53A148,148 0 0,0 331.00,128.41Z" fill="url(#wg)" stroke="#1a1410" stroke-width="0.8"/>
<path d="M384.75,183.01L466.52,136.65A242,242 0 0,1 489.25,191.53L398.65,216.57A148,148 0 0,0 384.75,183.01Z" fill="url(#wg)" stroke="#1a1410" stroke-width="0.8"/>
<path d="M399.25,218.82L490.24,195.20A242,242 0 0,1 497.99,254.10L404.00,254.84A148,148 0 0,0 399.25,218.82Z" fill="url(#wg)" stroke="#1a1410" stroke-width="0.8"/>
<path d="M398.65,295.43L489.25,320.47A242,242 0 0,1 466.52,375.35L384.75,328.99A148,148 0 0,0 398.65,295.43Z" fill="url(#wg)" stroke="#1a1410" stroke-width="0.8"/>
<path d="M359.83,361.47L425.77,428.46A242,242 0 0,1 378.64,464.62L331.00,383.59A148,148 0 0,0 359.83,361.47Z" fill="url(#wg)" stroke="#1a1410" stroke-width="0.8"/>
<path d="M293.18,399.25L316.80,490.24A242,242 0 0,1 257.90,497.99L257.16,404.00A148,148 0 0,0 293.18,399.25Z" fill="url(#wg)" stroke="#1a1410" stroke-width="0.8"/>
<path d="M254.84,404.00L254.10,497.99A242,242 0 0,1 195.20,490.24L218.82,399.25A148,148 0 0,0 254.84,404.00Z" fill="url(#wg)" stroke="#1a1410" stroke-width="0.8"/>
<path d="M181.00,383.59L133.36,464.62A242,242 0 0,1 86.23,428.46L152.17,361.47A148,148 0 0,0 181.00,383.59Z" fill="url(#wg)" stroke="#1a1410" stroke-width="0.8"/>
<path d="M127.25,328.99L45.48,375.35A242,242 0 0,1 22.75,320.47L113.35,295.43A148,148 0 0,0 127.25,328.99Z" fill="url(#wg)" stroke="#1a1410" stroke-width="0.8"/>
<path d="M112.75,293.18L21.76,316.80A242,242 0 0,1 14.01,257.90L108.00,257.16A148,148 0 0,0 112.75,293.18Z" fill="url(#wg)" stroke="#1a1410" stroke-width="0.8"/>
<path d="M113.35,216.57L22.75,191.53A242,242 0 0,1 45.48,136.65L127.25,183.01A148,148 0 0,0 113.35,216.57Z" fill="url(#wg)" stroke="#1a1410" stroke-width="0.8"/>
<path d="M152.17,150.53L86.23,83.54A242,242 0 0,1 133.36,47.38L181.00,128.41A148,148 0 0,0 152.17,150.53Z" fill="url(#wg)" stroke="#1a1410" stroke-width="0.8"/>
<path d="M218.82,112.75L195.20,21.76A242,242 0 0,1 254.10,14.01L254.84,108.00A148,148 0 0,0 218.82,112.75Z" fill="url(#wg)" stroke="#1a1410" stroke-width="0.8"/>
<path d="M303.57,115.85L322.86,59.04A208,208 0 0,1 348.00,69.45L321.46,123.26A148,148 0 0,0 303.57,115.85Z" fill="#1a1410"/>
<path d="M367.27,158.42L412.38,118.86A208,208 0 0,1 428.95,140.44L379.06,173.78A148,148 0 0,0 367.27,158.42Z" fill="#1a1410"/>
<path d="M403.68,265.68L463.55,269.60A208,208 0 0,1 460.00,296.58L401.16,284.87A148,148 0 0,0 403.68,265.68Z" fill="#1a1410"/>
<path d="M379.06,338.22L428.95,371.56A208,208 0 0,1 412.38,393.14L367.27,353.58A148,148 0 0,0 379.06,338.22Z" fill="#1a1410"/>
<path d="M321.46,388.74L348.00,442.55A208,208 0 0,1 322.86,452.96L303.57,396.15A148,148 0 0,0 321.46,388.74Z" fill="#1a1410"/>
<path d="M208.43,396.15L189.14,452.96A208,208 0 0,1 164.00,442.55L190.54,388.74A148,148 0 0,0 208.43,396.15Z" fill="#1a1410"/>
<path d="M144.73,353.58L99.62,393.14A208,208 0 0,1 83.05,371.56L132.94,338.22A148,148 0 0,0 144.73,353.58Z" fill="#1a1410"/>
<path d="M108.32,246.32L48.45,242.40A208,208 0 0,1 52.00,215.42L110.84,227.13A148,148 0 0,0 108.32,246.32Z" fill="#1a1410"/>
<path d="M132.94,173.78L83.05,140.44A208,208 0 0,1 99.62,118.86L144.73,158.42A148,148 0 0,0 132.94,173.78Z" fill="#1a1410"/>
<path d="M190.54,123.26L164.00,69.45A208,208 0 0,1 189.14,59.04L208.43,115.85A148,148 0 0,0 190.54,123.26Z" fill="#1a1410"/>
<circle cx="256" cy="256" r="148" fill="#f0ead6"/>
<circle cx="256" cy="256" r="144" fill="none" stroke="#c49a1e" stroke-width="4"/>
<circle cx="256" cy="256" r="138" fill="none" stroke="#c49a1e" stroke-width="1.2" opacity="0.55"/>
<circle cx="256" cy="256" r="134.5" fill="none" stroke="#7a1218" stroke-width="2.5"/>
<circle cx="256" cy="256" r="133" fill="url(#cg)"/>
<text x="256" y="304.2" text-anchor="middle" dominant-baseline="auto" font-family="Gloock" font-size="134" fill="#7a1218">48</text>
</svg>